<svg xmlns='http://www.w3.org/2000/svg' width='24' height='24' viewBox='0 0 24 24'>
  <defs>
    <path id="arrow" d="M19.513 3c.622 0 .984.468 1.075.856.091.389-.025.971-.585 1.247l-.414.211-.164.088-.363.201-.405.236-.439.27c-.682.43-1.46.976-2.242 1.637-1.654 1.399-3.258 3.261-4.027 5.57a1 1 0 0 1-1.898-.632c.928-2.784 2.823-4.933 4.634-6.465.431-.365.862-.698 1.278-1l.31-.219H14a1 1 0 0 1-.117-1.993L14 3z" />
    <mask id="cut">
      <rect width="24" height="24" fill="white" />
      <use href="#arrow" transform="matrix(0.85 0 0 0.85 -6.95 10.55)" fill="black" stroke="black" stroke-width="2" stroke-linejoin="round" />
    </mask>
  </defs>
  <g fill='none' fill-rule='evenodd'>
    <path mask="url(#cut)" fill='#09244BFF' d='M2 5a2 2 0 0 1 2-2h5.52a2 2 0 0 1 1.561.75l1.4 1.75H20a2 2 0 0 1 2 2V19a2 2 0 0 1-2 2H4a2 2 0 0 1-2-2zm7.52 0H4v14h16V7.5h-7.52a2 2 0 0 1-1.561-.75z'/>
    <use href="#arrow" transform="matrix(0.85 0 0 0.85 -6.95 10.55)" fill='#09244BFF' />
  </g>
</svg>
